SplineFontDB: 3.0
FontName: INE01
FullName: INE01
FamilyName: INE01
Weight: Regular
Copyright: Copyright (c) 2017, Adrian Franzese
UComments: "2017-4-12: Created with FontForge (http://fontforge.org)"
Version: 005.000
ItalicAngle: 0
UnderlinePosition: -100
UnderlineWidth: 50
Ascent: 1000
Descent: 0
InvalidEm: 0
LayerCount: 2
Layer: 0 0 "Back" 1
Layer: 1 0 "Fore" 0
XUID: [1021 409 1634145987 16652874]
FSType: 0
OS2Version: 0
OS2_WeightWidthSlopeOnly: 0
OS2_UseTypoMetrics: 1
CreationTime: 1491988589
ModificationTime: 1492405336
PfmFamily: 49
TTFWeight: 400
TTFWidth: 5
LineGap: 0
VLineGap: 90
OS2TypoAscent: 0
OS2TypoAOffset: 1
OS2TypoDescent: 0
OS2TypoDOffset: 1
OS2TypoLinegap: 0
OS2WinAscent: 0
OS2WinAOffset: 1
OS2WinDescent: 0
OS2WinDOffset: 1
HheadAscent: 0
HheadAOffset: 1
HheadDescent: 0
HheadDOffset: 1
OS2Vendor: 'PfEd'
MarkAttachClasses: 1
DEI: 91125
LangName: 1033
LangName: 1033
Encoding: ISO8859-1
UnicodeInterp: none
NameList: AGL For New Fonts
DisplaySize: -48
AntiAlias: 1
FitToEm: 0
WinInfo: 0 25 10
BeginPrivate: 0
EndPrivate
TeXData: 1 0 0 346030 173015 115343 0 1048576 115343 783286 444596 497025 792723 393216 433062 380633 303038 157286 324010 404750 52429 2506097 1059062 262144
BeginChars: 256 256

StartChar: A
Encoding: 65 65 0
Width: 1000
VWidth: 0
HStem: -20 21G<44.5531 55.4469 944.553 955.447> -20 21G<44.5531 55.4469 944.553 955.447> 280 40<330.007 669.993> 580 40<70 930>
VStem: 30 40<-19.9934 580> 930 40<-19.9934 580>
LayerCount: 2
Fore
SplineSet
330 300 m 0x3c
 330 310.893711496 339.106288504 320 350 320 c 2
 650 320 l 2
 660.893711496 320 670 310.893711496 670 300 c 0
 670 289.106288504 660.893711496 280 650 280 c 2
 350 280 l 2
 339.106288504 280 330 289.106288504 330 300 c 0x3c
50 -20 m 0xbc
 39.1062885044 -20 30 -10.8937114956 30 0 c 2
 30 600 l 2
 30 612.106030284 41.4160765339 620 50 620 c 2
 950 620 l 2
 962.106030284 620 970 608.583923466 970 600 c 2
 970 0 l 2
 970 -10.8937114956 960.893711496 -20 950 -20 c 0
 939.106288504 -20 930 -10.8937114956 930 0 c 2
 930 580 l 1
 70 580 l 1
 70 0 l 2
 70 -10.8937114956 60.8937114956 -20 50 -20 c 0xbc
EndSplineSet
EndChar

StartChar: B
Encoding: 66 66 66
Width: 1000
VWidth: 0
HStem: -20 40<70 930> 280 40<330.007 930> 580 40<70 930>
VStem: 30 40<20 580> 930 40<20 280 320 580>
CounterMasks: 1 e0
LayerCount: 2
Fore
SplineSet
330 300 m 0
 330 310.893711496 339.106288504 320 350 320 c 2
 930 320 l 1
 930 580 l 1
 70 580 l 1
 70 20 l 1
 930 20 l 1
 930 280 l 1
 350 280 l 2
 339.106288504 280 330 289.106288504 330 300 c 0
30 0 m 2
 30 600 l 2
 30 612.106030284 41.4160765339 620 50 620 c 2
 950 620 l 2
 962.106030284 620 970 608.583923466 970 600 c 2
 970 300 l 1
 970 0 l 2
 970 -12.1060302844 958.583923466 -20 950 -20 c 2
 50 -20 l 2
 37.8939697156 -20 30 -8.58392346613 30 0 c 2
EndSplineSet
EndChar

StartChar: C
Encoding: 67 67 67
Width: 1000
VWidth: 0
HStem: -20 40<244.462 969.993> 580 40<70 969.993>
VStem: 30 40<198.75 580>
LayerCount: 2
Fore
SplineSet
970 0 m 0
 970 -10.8937114956 960.893711496 -20 950 -20 c 2
 350 -20 l 2
 30.30186171 -20 30 300 30 300 c 1
 30 600 l 2
 30 612.106030284 41.4160765339 620 50 620 c 2
 950 620 l 2
 960.893711496 620 970 610.893711496 970 600 c 0
 970 589.106288504 960.893711496 580 950 580 c 2
 70 580 l 1
 70 300.021095088 l 2
 70.0233986498 294.892111058 71.7080741537 20 350 20 c 2
 950 20 l 2
 960.893711496 20 970 10.8937114956 970 0 c 0
EndSplineSet
EndChar

StartChar: D
Encoding: 68 68 68
Width: 1000
VWidth: 0
HStem: -20 40<70 751.262> 580 40<70 930>
VStem: 30 40<20 580> 930 40<194.46 580>
LayerCount: 2
Fore
SplineSet
70 580 m 1
 70 20 l 1
 649.978904911 20 l 2
 656.138139051 20.0280986959 930 22.2170723618 930 300 c 2
 930 580 l 1
 70 580 l 1
30 600 m 2
 30 608.583923466 37.8939697156 620 50 620 c 2
 950 620 l 2
 958.583923466 620 970 612.106030284 970 600 c 2
 970 300 l 2
 970 -19.7045122816 650.018115935 -19.9999917953 650.018115935 -19.9999917953 c 1
 50 -20 l 2
 41.4160765339 -20 30 -12.1060302844 30 0 c 2
 30 600 l 2
EndSplineSet
EndChar

StartChar: E
Encoding: 69 69 69
Width: 1000
VWidth: 0
HStem: -20 40<70 969.993> 280 40<70 669.993> 580 40<70 969.993>
VStem: 30 40<20 280 320 580>
CounterMasks: 1 e0
LayerCount: 2
Fore
SplineSet
670 300 m 0
 670 289.106288504 660.893711496 280 650 280 c 2
 70 280 l 1
 70 20 l 1
 950 20 l 2
 960.893711496 20 970 10.8937114956 970 0 c 0
 970 -10.8937114956 960.893711496 -20 950 -20 c 2
 50 -20 l 2
 41.4160765339 -20 30 -12.1060302844 30 0 c 2
 30 300 l 1
 30 600 l 2
 30 608.583923466 37.8939697156 620 50 620 c 2
 950 620 l 2
 960.893711496 620 970 610.893711496 970 600 c 0
 970 589.106288504 960.893711496 580 950 580 c 2
 70 580 l 1
 70 320 l 1
 650 320 l 2
 660.893711496 320 670 310.893711496 670 300 c 0
EndSplineSet
EndChar

StartChar: F
Encoding: 70 70 70
Width: 1000
VWidth: 0
HStem: -20 21G<44.5531 55.4469> -20 21G<44.5531 55.4469> 280 40<70 669.993> 580 40<70 969.993>
VStem: 30 40<-19.9934 280 320 580>
LayerCount: 2
Fore
SplineSet
670 300 m 0xb8
 670 289.106288504 660.893711496 280 650 280 c 2
 70 280 l 1
 70 0 l 2
 70 -10.8937114956 60.8937114956 -20 50 -20 c 0
 39.1062885044 -20 30 -10.8937114956 30 0 c 2
 30 300 l 1
 30 600 l 2
 30 612.106030284 41.4160765339 620 50 620 c 2
 950 620 l 2
 960.893711496 620 970 610.893711496 970 600 c 0
 970 589.106288504 960.893711496 580 950 580 c 2
 70 580 l 1
 70 320 l 1
 650 320 l 2
 660.893711496 320 670 310.893711496 670 300 c 0xb8
EndSplineSet
EndChar

StartChar: G
Encoding: 71 71 71
Width: 1000
VWidth: 0
HStem: -20 40<70 749.867> 280 40<330.007 929.521> 580 40<70 969.993>
VStem: 30 40<20 580>
CounterMasks: 1 e0
LayerCount: 2
Fore
SplineSet
970 600 m 0
 970 589.106288504 960.893711496 580 950 580 c 2
 70 580 l 1
 70 20 l 1
 649.978904911 20 l 2
 656.71433046 20.0307273063 916.161882045 22.8390932742 929.520890187 280 c 1
 350 280 l 2
 339.106288504 280 330 289.106288504 330 300 c 0
 330 310.893711496 339.106288504 320 350 320 c 2
 950 320 l 2
 958.583923466 320 970 312.106030284 970 300 c 0
 970 -19.7045122816 650.018115935 -19.9999917953 650.018115935 -19.9999917953 c 1
 50 -20 l 2
 41.4160765339 -20 30 -12.1060302844 30 0 c 2
 30 600 l 2
 30 608.583923466 37.8939697156 620 50 620 c 2
 950 620 l 2
 960.893711496 620 970 610.893711496 970 600 c 0
EndSplineSet
EndChar

StartChar: H
Encoding: 72 72 72
Width: 1000
VWidth: 0
HStem: -20 21G<44.5531 55.4469 944.553 955.447> -20 21G<44.5531 55.4469 944.553 955.447> 280 40<70 930> 600 20G<44.5531 55.4469 944.553 955.447> 600 20G<44.5531 55.4469 944.553 955.447>
VStem: 30 40<-19.9934 280 320 619.993> 930 40<-19.9934 280 320 619.993>
LayerCount: 2
Fore
SplineSet
950 620 m 0x36
 960.893711496 620 970 610.893711496 970 600 c 2
 970 300 l 1
 970 0 l 2
 970 -10.8937114956 960.893711496 -20 950 -20 c 0
 939.106288504 -20 930 -10.8937114956 930 0 c 2
 930 280 l 1
 70 280 l 1
 70 0 l 2
 70 -10.8937114956 60.8937114956 -20 50 -20 c 0
 39.1062885044 -20 30 -10.8937114956 30 0 c 2
 30 300 l 1
 30 600 l 2xae
 30 610.893711496 39.1062885044 620 50 620 c 0x36
 60.8937114956 620 70 610.893711496 70 600 c 2
 70 320 l 1
 930 320 l 1
 930 600 l 2x2e
 930 610.893711496 939.106288504 620 950 620 c 0x36
EndSplineSet
EndChar

StartChar: I
Encoding: 73 73 73
Width: 1000
VWidth: 0
HStem: -20 21G<44.5531 55.4469> -20 21G<44.5531 55.4469> 600 20G<44.5531 55.4469> 600 20G<44.5531 55.4469>
VStem: 30 40<-19.9934 419.993 480.007 619.993>
LayerCount: 2
Fore
SplineSet
50 620 m 0x28
 60.8937114956 620 70 610.893711496 70 600 c 2
 70 500 l 2
 70 489.106288504 60.8937114956 480 50 480 c 0
 39.1062885044 480 30 489.106288504 30 500 c 2
 30 600 l 2x18
 30 610.893711496 39.1062885044 620 50 620 c 0x28
50 -20 m 0x88
 39.1062885044 -20 30 -10.8937114956 30 0 c 2
 30 400 l 2
 30 410.893711496 39.1062885044 420 50 420 c 0
 60.8937114956 420 70 410.893711496 70 400 c 2
 70 0 l 2
 70 -10.8937114956 60.8937114956 -20 50 -20 c 0x88
EndSplineSet
EndChar

StartChar: J
Encoding: 74 74 74
Width: 1000
VWidth: 0
HStem: -20 40<248.741 930> 580 40<630.007 930>
VStem: 30.1 40<194.465 319.94> 930 40<20 580>
LayerCount: 2
Fore
SplineSet
630 600 m 0
 630 610.893711496 639.106288504 620 650 620 c 2
 950 620 l 2
 962.106030284 620 970 608.583923466 970 600 c 2
 970 0 l 2
 970 -12.1060302844 958.583923466 -20 950 -20 c 2
 349.98188406 -19.9999917953 l 1
 349.98188406 -19.9999917953 29.9934312441 -19.7029342591 30.1000011111 300.006666666 c 0
 30.1036323481 310.900377557 39.2129557759 320.003630126 50.1066666663 319.999998889 c 0
 61.0003775566 319.996367652 70.1036301259 310.887044224 70.0999988889 299.993333334 c 0
 70.0074063352 22.2156721546 343.859583089 20.0281091307 350.021095158 20 c 2
 930 20 l 1
 930 580 l 1
 650 580 l 2
 639.106288504 580 630 589.106288504 630 600 c 0
EndSplineSet
EndChar

StartChar: K
Encoding: 75 75 75
Width: 1000
VWidth: 0
HStem: -20 21G<44.5531 55.4469 944.294 955.743> -20 21G<44.5531 55.4469 944.294 955.743> 280 40<70 751.663> 600 20G<44.5531 55.4469> 600 20G<44.5531 55.4469>
VStem: 30 40<-19.9934 280 320 619.993> 930.004 39.997<-19.9928 101.486 488.936 619.993>
LayerCount: 2
Fore
SplineSet
950.018109896 -19.9999918008 m 0x2e
 938.568992436 -19.9999918008 930.748416269 -10.1955650713 930.003743325 -0.841890319733 c 0
 929.968773547 6.82604109025 927.78037666 280 650.1 280 c 2
 650.044984106 280.000078952 l 1
 650.018115929 280.000008205 l 1
 70 280.000000273 l 1
 70 0 l 2
 70 -10.8937114956 60.8937114956 -20 50 -20 c 0
 39.1062885044 -20 30 -10.8937114956 30 0 c 2
 30 300 l 1
 30 360 l 1
 30 600 l 2xae
 30 610.893711496 39.1062885044 620 50 620 c 0x36
 60.8937114956 620 70 610.893711496 70 600 c 2
 70 360 l 1
 70 320 l 1
 649.978904981 320 l 2
 656.135861134 320.028088261 930.007405046 322.218469945 930.100001111 600.006666666 c 0
 930.103632348 610.900377557 939.212955776 620.003630126 950.106666666 619.999998889 c 0
 961.000377557 619.996367652 970.103630126 610.887044224 970.099998889 599.993333334 c 0
 970.037293224 411.876338801 859.224474031 334.349068944 768.018043074 302.39838192 c 1
 969.357815653 235.480128123 969.999486077 0.577596400024 970.000704219 -0.767680634398 c 0
 969.267570674 -10.1921214225 961.468086234 -19.9999918008 950.018109896 -19.9999918008 c 0x2e
EndSplineSet
EndChar

StartChar: L
Encoding: 76 76 76
Width: 1000
VWidth: 0
HStem: -20 40<70 969.993> 600 20G<44.5531 55.4469> 600 20G<44.5531 55.4469>
VStem: 30 40<20 619.993>
LayerCount: 2
Fore
SplineSet
50 620 m 0xd0
 60.8937114956 620 70 610.893711496 70 600 c 2
 70 20 l 1
 950 20 l 2
 960.893711496 20 970 10.8937114956 970 0 c 0
 970 -10.8937114956 960.893711496 -20 950 -20 c 2
 50 -20 l 2
 41.4160765339 -20 30 -12.1060302844 30 0 c 2
 30 600 l 2xb0
 30 610.893711496 39.1062885044 620 50 620 c 0xd0
EndSplineSet
EndChar

StartChar: M
Encoding: 77 77 77
Width: 1000
VWidth: 0
HStem: -20 21G<44.5531 55.4469 344.553 355.447 944.553 955.447> -20 21G<44.5531 55.4469 344.553 355.447 944.553 955.447> 580 40<248.583 369.993 548.738 930>
VStem: 30 40<-19.9934 405.373> 330 40<-19.9934 405.54> 930 40<-19.9934 580>
LayerCount: 2
Fore
SplineSet
950 -20 m 0xbc
 939.106288504 -20 930 -10.8937114956 930 0 c 2
 930 580 l 1
 650.021095089 580 l 2
 643.861860949 579.971901304 370 577.782927638 370 300 c 2
 370 0 l 2
 370 -10.8937114956 360.893711496 -20 350 -20 c 0
 339.106288504 -20 330 -10.8937114956 330 0 c 2
 330 300 l 2
 330 619.704512282 649.981884065 619.999991795 649.981884065 619.999991795 c 1
 950 620 l 2
 958.583923466 620 970 612.106030284 970 600 c 2
 970 0 l 2
 970 -10.8937114956 960.893711496 -20 950 -20 c 0xbc
369.999991795 600.018115935 m 0
 369.999991795 588.568998765 360.195560387 580.748418511 350.841909044 580.003744589 c 0
 343.178630342 579.968784376 70 577.784017587 70 300 c 2
 70 0 l 2
 70 -10.8937114956 60.8937114956 -20 50 -20 c 0
 39.1062885044 -20 30 -10.8937114956 30 0 c 2
 30 300 l 2
 30 619.122160692 349.194212109 619.999279213 350.767674592 620.000704451 c 0
 360.192115608 619.267573751 369.999991795 611.46809227 369.999991795 600.018115935 c 0
EndSplineSet
EndChar

StartChar: N
Encoding: 78 78 78
Width: 1000
VWidth: 0
HStem: -20 21G<44.5531 55.4469> -20 21G<44.5531 55.4469> 600 20G<944.553 955.447> 600 20G<944.553 955.447>
VStem: 30 40<-19.9934 562.63> 930 40<37.3703 619.993>
LayerCount: 2
Fore
SplineSet
50 -20 m 0x9c
 39.1062885044 -20 30 -10.8937114956 30 0 c 2
 30 600 l 2
 30 611.496323095 40.108256122 620.840317842 51.5691417089 619.938349839 c 0
 55.0014273356 619.668230066 59.3576634194 617.798566224 61.0940039245 616.641005887 c 2
 930 37.3703418364 l 1
 930 600 l 2x9c
 930 610.893711496 939.106288504 620 950 620 c 0x2c
 960.893711496 620 970 610.893711496 970 600 c 2
 970 0 l 2
 970 -2.3317229291 969.122128944 -6.77917766052 967.460113066 -9.75420174732 c 0
 961.853240325 -19.7905568017 948.471515091 -23.0180185636 938.905996075 -16.6410058868 c 2
 70 562.629658164 l 1
 70 0 l 2
 70 -10.8937114956 60.8937114956 -20 50 -20 c 0x9c
EndSplineSet
EndChar

StartChar: O
Encoding: 79 79 79
Width: 1000
VWidth: 0
HStem: -20 40<70 930> 580 40<70 930>
VStem: 30 40<20 580> 930 40<20 580>
LayerCount: 2
Fore
SplineSet
30 0 m 2
 30 600 l 2
 30 612.106030284 41.4160765339 620 50 620 c 2
 950 620 l 2
 962.106030284 620 970 608.583923466 970 600 c 2
 970 0 l 2
 970 -12.1060302844 958.583923466 -20 950 -20 c 2
 50 -20 l 2
 37.8939697156 -20 30 -8.58392346613 30 0 c 2
70 20 m 1
 930 20 l 1
 930 580 l 1
 70 580 l 1
 70 20 l 1
EndSplineSet
EndChar

StartChar: P
Encoding: 80 80 80
Width: 1000
VWidth: 0
HStem: -20 21G<44.5531 55.4469> -20 21G<44.5531 55.4469> 280 40<70 930> 580 40<70 930>
VStem: 30 40<-19.9934 280 320 580> 930 40<320 580>
LayerCount: 2
Fore
SplineSet
70 320 m 1x3c
 930 320 l 1
 930 580 l 1
 70 580 l 1
 70 320 l 1x3c
70 280 m 1
 70 0 l 2
 70 -10.8937114956 60.8937114956 -20 50 -20 c 0xbc
 39.1062885044 -20 30 -10.8937114956 30 0 c 2
 30 300 l 1
 30 600 l 2
 30 612.106030284 41.4160765339 620 50 620 c 2
 950 620 l 2
 962.106030284 620 970 608.583923466 970 600 c 2
 970 300 l 2
 970 287.893969716 958.583923466 280 950 280 c 2
 70 280 l 1
EndSplineSet
EndChar

StartChar: Q
Encoding: 81 81 81
Width: 1000
VWidth: 0
HStem: -20 40<70 330 370 930> 580 40<70 930>
VStem: 30 40<20 580> 330 40<20 319.993> 930 40<20 580>
LayerCount: 2
Fore
SplineSet
350 320 m 0
 360.893711496 320 370 310.893711496 370 300 c 2
 370 20 l 1
 930 20 l 1
 930 580 l 1
 70 580 l 1
 70 20 l 1
 330 20 l 1
 330 300 l 2
 330 310.893711496 339.106288504 320 350 320 c 0
30 0 m 2
 30 600 l 2
 30 612.106030284 41.4160765339 620 50 620 c 2
 950 620 l 2
 962.106030284 620 970 608.583923466 970 600 c 2
 970 0 l 2
 970 -12.1060302844 958.583923466 -20 950 -20 c 2
 350 -20 l 1
 50 -20 l 2
 37.8939697156 -20 30 -8.58392346613 30 0 c 2
EndSplineSet
EndChar

StartChar: R
Encoding: 82 82 82
Width: 1000
VWidth: 0
HStem: -20 40<839.36 970.093> -20 21G<44.5531 55.4469> 280 40<70 633.473 671.2 930> 580 40<70 930>
VStem: 30 40<-19.9934 280 320 580> 631.201 39.9995<197.209 280> 930 40<320 580>
LayerCount: 2
Fore
SplineSet
70 320 m 1x3e
 930 320 l 1
 930 580 l 1
 70 580 l 1
 70 320 l 1x3e
70 280 m 1
 70 0 l 2
 70 -10.8937114956 60.8937114956 -20 50 -20 c 0x7e
 39.1062885044 -20 30 -10.8937114956 30 0 c 2
 30 300 l 1
 30 600 l 2
 30 608.583923466 37.8939697156 620 50 620 c 2
 950 620 l 2
 958.583923466 620 970 612.106030284 970 600 c 2
 970 300 l 2
 970 291.416076534 962.106030284 280 950 280 c 2
 671.20000418 280 l 1
 677.38917638 214.762476946 715.463901589 20 950.1 20 c 0
 960.993711496 20 970.1 10.8937114956 970.1 0 c 0
 970.1 -10.8937114956 960.993711496 -20 950.1 -20 c 0xbe
 679.747141328 -20 637.730040305 208.948274177 631.200530854 280 c 1
 70 280 l 1
EndSplineSet
EndChar

StartChar: S
Encoding: 83 83 83
Width: 1000
VWidth: 0
HStem: -20 40<70 930> 280 40<70 930> 580 40<70 930>
VStem: 30 40<20 119.993 320 580> 930 40<20 280 480.007 580>
CounterMasks: 1 e0
LayerCount: 2
Fore
SplineSet
950 480 m 0
 939.106288504 480 930 489.106288504 930 500 c 2
 930 580 l 1
 70 580 l 1
 70 320 l 1
 950 320 l 2
 962.106030284 320 970 308.583923466 970 300 c 2
 970 0 l 2
 970 -12.1060302844 958.583923466 -20 950 -20 c 2
 50 -20 l 2
 37.8939697156 -20 30 -8.58392346613 30 0 c 2
 30 100 l 2
 30 110.893711496 39.1062885044 120 50 120 c 0
 60.8937114956 120 70 110.893711496 70 100 c 2
 70 20 l 1
 930 20 l 1
 930 280 l 1
 50 280 l 2
 41.4160765339 280 30 287.893969716 30 300 c 2
 30 600 l 2
 30 608.583923466 37.8939697156 620 50 620 c 2
 950 620 l 2
 958.583923466 620 970 612.106030284 970 600 c 2
 970 500 l 2
 970 489.106288504 960.893711496 480 950 480 c 0
EndSplineSet
EndChar

StartChar: T
Encoding: 84 84 84
Width: 1000
VWidth: 0
HStem: -20 21G<344.553 355.447> -20 21G<344.553 355.447> 580 40<30.0066 330 370 969.993>
VStem: 330 40<-19.9934 580>
LayerCount: 2
Fore
SplineSet
350 -20 m 0xb0
 339.106288504 -20 330 -10.8937114956 330 0 c 2
 330 580 l 1
 50 580 l 2
 39.1062885044 580 30 589.106288504 30 600 c 0
 30 610.893711496 39.1062885044 620 50 620 c 2
 350 620 l 1
 950 620 l 2
 960.893711496 620 970 610.893711496 970 600 c 0
 970 589.106288504 960.893711496 580 950 580 c 2
 370 580 l 1
 370 0 l 2
 370 -10.8937114956 360.893711496 -20 350 -20 c 0xb0
EndSplineSet
EndChar

StartChar: U
Encoding: 85 85 85
Width: 1000
VWidth: 0
HStem: -20 40<248.738 930> 600 20G<44.5531 55.4469 944.553 955.447> 600 20G<44.5531 55.4469 944.553 955.447>
VStem: 30 40<194.46 619.993> 930 40<20 619.993>
LayerCount: 2
Fore
SplineSet
950 620 m 0xd8
 960.893711496 620 970 610.893711496 970 600 c 2
 970 0 l 2
 970 -12.1060302844 958.583923466 -20 950 -20 c 2
 349.981884065 -19.9999917953 l 1
 349.981884065 -19.9999917953 30 -19.7045122816 30 300 c 2
 30 600 l 2xb8
 30 610.893711496 39.1062885044 620 50 620 c 0xd8
 60.8937114956 620 70 610.893711496 70 600 c 2
 70 300 l 2
 70 22.2170723618 343.861860949 20.0280986959 350.021095089 20 c 2
 930 20 l 1
 930 600 l 2xb8
 930 610.893711496 939.106288504 620 950 620 c 0xd8
EndSplineSet
EndChar

StartChar: V
Encoding: 86 86 86
Width: 1000
VWidth: 0
HStem: 600 20G<44.5531 55.4469> 600 20G<44.5531 55.4469>
VStem: 30 40<37.3703 619.993>
LayerCount: 2
Fore
SplineSet
50 620 m 0xa0
 60.8937114956 620 70 610.893711496 70 600 c 2
 70 37.3703418364 l 1
 938.905996075 616.641005887 l 2
 947.970111932 622.683749791 960.598261983 620.158119781 966.641005887 611.094003925 c 0
 972.683749791 602.029888068 970.158119781 589.401738017 961.094003925 583.358994113 c 2
 61.0940039245 -16.6410058868 l 2
 59.153893175 -17.9344130531 54.9664319096 -19.6709841946 51.5691417089 -19.9383498389 c 0
 40.108256122 -20.8403178423 30 -11.4963230954 30 0 c 2
 30 600 l 2x60
 30 610.893711496 39.1062885044 620 50 620 c 0xa0
EndSplineSet
EndChar

StartChar: W
Encoding: 87 87 87
Width: 1000
VWidth: 0
HStem: -20 40<70 151.321 330.007 751.262> 600 20G<44.5531 55.4469 344.553 355.447 944.553 955.447> 600 20G<44.5531 55.4469 344.553 355.447 944.553 955.447>
VStem: 30 40<21.2665 619.993> 330 40<187.889 619.993> 930 40<194.46 619.993>
LayerCount: 2
Fore
SplineSet
330 0 m 0xbc
 330 10.8937114956 339.106288504 20 350 20 c 2
 649.978904911 20 l 2
 656.138139051 20.0280986959 930 22.2170723618 930 300 c 2
 930 600 l 2xbc
 930 610.893711496 939.106288504 620 950 620 c 0xdc
 960.893711496 620 970 610.893711496 970 600 c 2
 970 300 l 2
 970 -19.7045122816 650.018115935 -19.9999917953 650.018115935 -19.9999917953 c 1
 350 -20 l 2
 339.106288504 -20 330 -10.8937114956 330 0 c 0xbc
50 620 m 0xdc
 60.8937114956 620 70 610.893711496 70 600 c 2
 70 21.2664605628 l 1
 137.780241305 28.029781821 330 65.8002730746 330 300 c 2
 330 600 l 2xbc
 330 610.893711496 339.106288504 620 350 620 c 0xdc
 360.893711496 620 370 610.893711496 370 600 c 2
 370 300 l 2
 370 -19.1219526336 50.1492561035 -19.9998738975 50.0210554001 -19.9999900214 c 0
 41.3986698888 -19.9999734623 30 -12.1060535145 30 0 c 2
 30 600 l 2xbc
 30 610.893711496 39.1062885044 620 50 620 c 0xdc
EndSplineSet
EndChar

StartChar: X
Encoding: 88 88 88
Width: 1000
VWidth: 0
HStem: -20 21G<44.2478 55.6971> -20 21G<44.2478 55.6971> 180 40<162.512 270.093> 280 40<244.627 751.266> 380 40<730.107 837.612> 600 20G<44.2569 55.7064 944.303 955.752> 600 20G<44.2569 55.7064 944.303 955.752>
VStem: 29.9989 39.9953<-19.9928 84.0977 498.583 619.993> 930.1 40<-19.9402 105.545 515.891 619.993>
LayerCount: 2
Fore
SplineSet
950.027234307 619.999981457 m 0x3d80
 961.477205046 619.999981457 969.272217615 610.183341899 970.001053472 600.758541549 c 0
 969.998893955 599.172662479 969.103828859 380 750.1 380 c 0
 739.206288504 380 730.1 389.106288504 730.1 400 c 0
 730.1 410.893711496 739.206288504 420 750.1 420 c 0
 927.87818761 420 929.953542207 593.282868059 930.005780269 600.871629071 c 0
 930.751703844 610.187289113 938.578588876 619.999981457 950.027234307 619.999981457 c 0x3d80
49.9728125251 -19.999981521 m 0xb980
 38.5228417537 -19.999981521 30.7278062193 -10.1833868769 29.998948318 -0.758588565868 c 0
 30.0011188174 0.838100644639 30.9084577775 220 250.1 220 c 0
 260.993711496 220 270.1 210.893711496 270.1 200 c 0
 270.1 189.106288504 260.993711496 180 250.1 180 c 0
 72.1090968479 180 70.0461855471 6.68926142062 69.9942315505 -0.871460130675 c 0
 69.2483119206 -10.1873450848 61.4214607537 -19.999981521 49.9728125251 -19.999981521 c 0xb980
49.9818840654 619.999991795 m 0
 61.4310012354 619.999991795 69.2515814887 610.195560387 69.9962554108 600.841909044 c 0
 70.0312156238 593.178630342 72.2159824127 320 350 320 c 2
 650.018115929 319.999991795 l 1
 650.018115929 319.999991795 969.993432416 319.706086497 970.099998889 0.0066666662963 c 0
 970.103630126 -10.8870442241 961.000377557 -19.9963676519 950.106666666 -19.9999988889 c 0
 939.212955776 -20.0036301259 930.103632348 -10.9003775566 930.100001111 -0.0066666662963 c 0
 930.007405046 277.781530055 656.135861134 279.971911739 649.978904981 280 c 2
 350 280 l 2
 30.877839308 280 30.0007207871 599.194212109 29.9992955493 600.767674592 c 0
 30.7324262485 610.192115608 38.5319077302 619.999991795 49.9818840654 619.999991795 c 0
EndSplineSet
EndChar

StartChar: Y
Encoding: 89 89 89
Width: 1000
VWidth: 0
HStem: -20 21G<944.553 955.447> -20 21G<944.553 955.447> 280 40<244.627 930> 600 20G<44.2569 55.7064 944.553 955.447> 600 20G<44.2569 55.7064 944.553 955.447>
VStem: 29.9993 39.997<498.583 619.993> 930 40<-19.9934 280 320 619.993>
LayerCount: 2
Fore
SplineSet
950 620 m 0x36
 960.893711496 620 970 610.893711496 970 600 c 2
 970 300 l 1
 970 0 l 2
 970 -10.8937114956 960.893711496 -20 950 -20 c 0
 939.106288504 -20 930 -10.8937114956 930 0 c 2
 930 280 l 1
 350 280 l 2
 30.877839308 280 30.0007207871 599.194212109 29.9992955493 600.767674592 c 0
 30.7324262485 610.192115608 38.5319077302 619.999991795 49.9818840654 619.999991795 c 0
 61.4310012354 619.999991795 69.2515814887 610.195560387 69.9962554108 600.841909044 c 0
 70.0312156238 593.178630342 72.2159824127 320 350 320 c 2
 930 320 l 1
 930 600 l 2xae
 930 610.893711496 939.106288504 620 950 620 c 0x36
EndSplineSet
EndChar

StartChar: Z
Encoding: 90 90 90
Width: 1000
VWidth: 0
HStem: -20 40<71.2665 969.993> 280 40<237.889 749.867> 580 40<30.0066 929.521>
CounterMasks: 1 e0
LayerCount: 2
Fore
SplineSet
970 0 m 0
 970 -10.8937114956 960.893711496 -20 950 -20 c 2
 50 -20 l 2
 37.8939464855 -20 30.0000265377 -8.60133011116 30.0000099786 0.0210554001101 c 0
 30.0001261025 0.149256103546 30.8780473664 320 350 320 c 2
 649.978904911 320 l 2
 656.71433046 320.030727306 916.161882045 322.839093274 929.520890187 580 c 1
 50 580 l 2
 39.1062885044 580 30 589.106288504 30 600 c 0
 30 610.893711496 39.1062885044 620 50 620 c 2
 950 620 l 2
 958.583923466 620 970 612.106030284 970 600 c 0
 970 280.295487718 650.018115935 280.000008205 650.018115935 280.000008205 c 1
 350 280 l 2
 115.800273075 280 78.029781821 87.7802413055 71.2664605628 20 c 1
 950 20 l 2
 960.893711496 20 970 10.8937114956 970 0 c 0
EndSplineSet
EndChar

StartChar: a
Encoding: 97 97 97
Width: 1000
VWidth: 0
HStem: -20 21G<44.5531 55.4469 944.553 955.447> -20 21G<44.5531 55.4469 944.553 955.447> 280 40<330.007 669.993> 500 20G<44.5531 55.4469> 580 40<130.007 930>
VStem: 30 40<-19.9934 519.993> 930 40<-19.9934 580>
LayerCount: 2
Fore
SplineSet
50 520 m 0xbe
 60.8937114956 520 70 510.893711496 70 500 c 2
 70 0 l 2
 70 -10.8937114956 60.8937114956 -20 50 -20 c 0
 39.1062885044 -20 30 -10.8937114956 30 0 c 2
 30 500 l 2
 30 510.893711496 39.1062885044 520 50 520 c 0xbe
330 300 m 0
 330 310.893711496 339.106288504 320 350 320 c 2
 650 320 l 2
 660.893711496 320 670 310.893711496 670 300 c 0
 670 289.106288504 660.893711496 280 650 280 c 2
 350 280 l 2
 339.106288504 280 330 289.106288504 330 300 c 0
130 600 m 0
 130 610.893711496 139.106288504 620 150 620 c 2
 950 620 l 2
 962.106030284 620 970 608.583923466 970 600 c 2
 970 0 l 2
 970 -10.8937114956 960.893711496 -20 950 -20 c 0
 939.106288504 -20 930 -10.8937114956 930 0 c 2
 930 580 l 1
 150 580 l 2
 139.106288504 580 130 589.106288504 130 600 c 0
EndSplineSet
EndChar

StartChar: b
Encoding: 98 98 98
Width: 1000
VWidth: 0
HStem: -20 40<70 930> 280 40<330.007 930> 500 20G<44.5531 55.4469> 580 40<130.007 930>
VStem: 30 40<20 519.993> 930 40<20 280 320 580>
LayerCount: 2
Fore
SplineSet
330 300 m 0
 330 310.893711496 339.106288504 320 350 320 c 2
 930 320 l 1
 930 580 l 1
 150 580 l 2
 139.106288504 580 130 589.106288504 130 600 c 0
 130 610.893711496 139.106288504 620 150 620 c 2
 950 620 l 2
 958.583923466 620 970 612.106030284 970 600 c 2
 970 300 l 1
 970 0 l 2
 970 -8.58392346613 962.106030284 -20 950 -20 c 2
 50 -20 l 2
 41.4160765339 -20 30 -12.1060302844 30 0 c 2
 30 500 l 2
 30 510.893711496 39.1062885044 520 50 520 c 0
 60.8937114956 520 70 510.893711496 70 500 c 2
 70 20 l 1
 930 20 l 1
 930 280 l 1
 350 280 l 2
 339.106288504 280 330 289.106288504 330 300 c 0
EndSplineSet
EndChar

StartChar: c
Encoding: 99 99 99
Width: 1000
VWidth: 0
HStem: -20 40<244.462 969.993> 500 20G<44.5531 55.4469> 580 40<130.007 969.993>
VStem: 30 40<198.75 519.993>
LayerCount: 2
Fore
SplineSet
970 0 m 0
 970 -10.8937114956 960.893711496 -20 950 -20 c 2
 350 -20 l 2
 30.30186171 -20 30 300 30 300 c 1
 30 500 l 2
 30 510.893711496 39.1062885044 520 50 520 c 0
 60.8937114956 520 70 510.893711496 70 500 c 2
 70 300.021095088 l 2
 70.0233986498 294.892111058 71.7080741537 20 350 20 c 2
 950 20 l 2
 960.893711496 20 970 10.8937114956 970 0 c 0
130 600 m 0
 130 610.893711496 139.106288504 620 150 620 c 2
 950 620 l 2
 960.893711496 620 970 610.893711496 970 600 c 0
 970 589.106288504 960.893711496 580 950 580 c 2
 150 580 l 2
 139.106288504 580 130 589.106288504 130 600 c 0
EndSplineSet
EndChar

StartChar: d
Encoding: 100 100 100
Width: 1000
VWidth: 0
HStem: -20 40<70 751.262> 500 20G<44.5531 55.4469> 580 40<130.007 930>
VStem: 30 40<20 519.993> 930 40<194.46 580>
LayerCount: 2
Fore
SplineSet
50 520 m 0
 60.8937114956 520 70 510.893711496 70 500 c 2
 70 20 l 1
 649.978904911 20 l 2
 656.138139051 20.0280986959 930 22.2170723618 930 300 c 2
 930 580 l 1
 150 580 l 2
 139.106288504 580 130 589.106288504 130 600 c 0
 130 610.893711496 139.106288504 620 150 620 c 2
 950 620 l 2
 958.583923466 620 970 612.106030284 970 600 c 2
 970 300 l 2
 970 -19.7045122816 650.018115935 -19.9999917953 650.018115935 -19.9999917953 c 1
 50 -20 l 2
 41.4160765339 -20 30 -12.1060302844 30 0 c 2
 30 500 l 2
 30 510.893711496 39.1062885044 520 50 520 c 0
EndSplineSet
EndChar

StartChar: e
Encoding: 101 101 101
Width: 1000
VWidth: 0
HStem: -20 40<70 969.993> 280 40<70 669.993> 500 20G<44.5531 55.4469> 580 40<130.007 969.993>
VStem: 30 40<20 280 320 519.993>
LayerCount: 2
Fore
SplineSet
670 300 m 0
 670 289.106288504 660.893711496 280 650 280 c 2
 70 280 l 1
 70 20 l 1
 950 20 l 2
 960.893711496 20 970 10.8937114956 970 0 c 0
 970 -10.8937114956 960.893711496 -20 950 -20 c 2
 50 -20 l 2
 41.4160765339 -20 30 -12.1060302844 30 0 c 2
 30 300 l 1
 30 500 l 2
 30 510.893711496 39.1062885044 520 50 520 c 0
 60.8937114956 520 70 510.893711496 70 500 c 2
 70 320 l 1
 650 320 l 2
 660.893711496 320 670 310.893711496 670 300 c 0
970 600 m 0
 970 589.106288504 960.893711496 580 950 580 c 2
 150 580 l 2
 139.106288504 580 130 589.106288504 130 600 c 0
 130 610.893711496 139.106288504 620 150 620 c 2
 950 620 l 2
 960.893711496 620 970 610.893711496 970 600 c 0
EndSplineSet
EndChar

StartChar: f
Encoding: 102 102 102
Width: 1000
VWidth: 0
HStem: -20 21G<44.5531 55.4469> -20 21G<44.5531 55.4469> 280 40<70 669.993> 500 20G<44.5531 55.4469> 580 40<130.007 969.993>
VStem: 30 40<-19.9934 280 320 519.993>
LayerCount: 2
Fore
SplineSet
670 300 m 0xbc
 670 289.106288504 660.893711496 280 650 280 c 2
 70 280 l 1
 70 0 l 2
 70 -10.8937114956 60.8937114956 -20 50 -20 c 0
 39.1062885044 -20 30 -10.8937114956 30 0 c 2
 30 300 l 1
 30 500 l 2
 30 510.893711496 39.1062885044 520 50 520 c 0
 60.8937114956 520 70 510.893711496 70 500 c 2
 70 320 l 1
 650 320 l 2
 660.893711496 320 670 310.893711496 670 300 c 0xbc
130 600 m 0
 130 610.893711496 139.106288504 620 150 620 c 2
 950 620 l 2
 960.893711496 620 970 610.893711496 970 600 c 0
 970 589.106288504 960.893711496 580 950 580 c 2
 150 580 l 2
 139.106288504 580 130 589.106288504 130 600 c 0
EndSplineSet
EndChar

StartChar: g
Encoding: 103 103 103
Width: 1000
VWidth: 0
HStem: -20 40<70 749.867> 280 40<330.007 929.521> 500 20G<44.5531 55.4469> 580 40<130.007 969.993>
VStem: 30 40<20 519.993>
LayerCount: 2
Fore
SplineSet
970 600 m 0
 970 589.106288504 960.893711496 580 950 580 c 2
 150 580 l 2
 139.106288504 580 130 589.106288504 130 600 c 0
 130 610.893711496 139.106288504 620 150 620 c 2
 950 620 l 2
 960.893711496 620 970 610.893711496 970 600 c 0
50 520 m 0
 60.8937114956 520 70 510.893711496 70 500 c 2
 70 20 l 1
 649.978904911 20 l 2
 656.71433046 20.0307273063 916.161882045 22.8390932742 929.520890187 280 c 1
 350 280 l 2
 339.106288504 280 330 289.106288504 330 300 c 0
 330 310.893711496 339.106288504 320 350 320 c 2
 950 320 l 2
 958.583923466 320 970 312.106030284 970 300 c 0
 970 -19.7045122816 650.018115935 -19.9999917953 650.018115935 -19.9999917953 c 1
 50 -20 l 2
 41.4160765339 -20 30 -12.1060302844 30 0 c 2
 30 500 l 2
 30 510.893711496 39.1062885044 520 50 520 c 0
EndSplineSet
EndChar

StartChar: h
Encoding: 104 104 104
Width: 1000
VWidth: 0
HStem: -20 21G<44.5531 55.4469 944.553 955.447> -20 21G<44.5531 55.4469 944.553 955.447> 280 40<70 930> 500 20G<44.5531 55.4469> 600 20G<944.553 955.447> 600 20G<944.553 955.447>
VStem: 30 40<-19.9934 280 320 519.993> 930 40<-19.9934 280 320 619.993>
LayerCount: 2
Fore
SplineSet
950 620 m 0x3b
 960.893711496 620 970 610.893711496 970 600 c 2
 970 300 l 1
 970 0 l 2
 970 -10.8937114956 960.893711496 -20 950 -20 c 0
 939.106288504 -20 930 -10.8937114956 930 0 c 2
 930 280 l 1
 70 280 l 1
 70 0 l 2
 70 -10.8937114956 60.8937114956 -20 50 -20 c 0
 39.1062885044 -20 30 -10.8937114956 30 0 c 2
 30 300 l 1
 30 500 l 2
 30 510.893711496 39.1062885044 520 50 520 c 0
 60.8937114956 520 70 510.893711496 70 500 c 2
 70 320 l 1
 930 320 l 1
 930 600 l 2xb7
 930 610.893711496 939.106288504 620 950 620 c 0x3b
EndSplineSet
EndChar

StartChar: i
Encoding: 105 105 105
Width: 1000
VWidth: 0
HStem: -20 21G<44.5531 55.4469> -20 21G<44.5531 55.4469> 500 20G<44.5531 55.4469>
VStem: 30 40<-19.9934 319.993 380.007 519.993>
LayerCount: 2
Fore
SplineSet
50 380 m 0x30
 39.1062885044 380 30 389.106288504 30 400 c 2
 30 500 l 2
 30 510.893711496 39.1062885044 520 50 520 c 0
 60.8937114956 520 70 510.893711496 70 500 c 2
 70 400 l 2
 70 389.106288504 60.8937114956 380 50 380 c 0x30
50 -20 m 0xb0
 39.1062885044 -20 30 -10.8937114956 30 0 c 2
 30 300 l 2
 30 310.893711496 39.1062885044 320 50 320 c 0
 60.8937114956 320 70 310.893711496 70 300 c 2
 70 0 l 2
 70 -10.8937114956 60.8937114956 -20 50 -20 c 0xb0
EndSplineSet
EndChar

StartChar: j
Encoding: 106 106 106
Width: 1000
VWidth: 0
HStem: -20 40<248.741 930> 580 40<630.007 930>
VStem: 30.1 40<194.465 319.94> 930 40<20 580>
LayerCount: 2
Fore
SplineSet
630 600 m 0
 630 610.893711496 639.106288504 620 650 620 c 2
 950 620 l 2
 962.106030284 620 970 608.583923466 970 600 c 2
 970 0 l 2
 970 -12.1060302844 958.583923466 -20 950 -20 c 2
 349.98188406 -19.9999917953 l 1
 349.98188406 -19.9999917953 29.9934312441 -19.7029342591 30.1000011111 300.006666666 c 0
 30.1036323481 310.900377557 39.2129557759 320.003630126 50.1066666663 319.999998889 c 0
 61.0003775566 319.996367652 70.1036301259 310.887044224 70.0999988889 299.993333334 c 0
 70.0074063352 22.2156721546 343.859583089 20.0281091307 350.021095158 20 c 2
 930 20 l 1
 930 580 l 1
 650 580 l 2
 639.106288504 580 630 589.106288504 630 600 c 0
EndSplineSet
EndChar

StartChar: k
Encoding: 107 107 107
Width: 1000
VWidth: 0
HStem: -20 21G<44.5531 55.4469 944.294 955.743> -20 21G<44.5531 55.4469 944.294 955.743> 280 40<70 751.663> 500 20G<44.5531 55.4469>
VStem: 30 40<-19.9934 280 320 519.993> 930.004 39.997<-19.9928 101.486 488.936 619.993>
LayerCount: 2
Fore
SplineSet
950.018109896 -19.9999918008 m 0xbc
 938.568992436 -19.9999918008 930.748416269 -10.1955650713 930.003743325 -0.841890319733 c 0
 929.968773547 6.82604109025 927.78037666 280 650.1 280 c 2
 650.044984106 280.000078952 l 1
 650.018115929 280.000008205 l 1
 70 280.000000273 l 1
 70 0 l 2
 70 -10.8937114956 60.8937114956 -20 50 -20 c 0
 39.1062885044 -20 30 -10.8937114956 30 0 c 2
 30 300 l 1
 30 360 l 1
 30 500 l 2
 30 510.893711496 39.1062885044 520 50 520 c 0
 60.8937114956 520 70 510.893711496 70 500 c 2
 70 360 l 1
 70 320 l 1
 649.978904981 320 l 2
 656.135861134 320.028088261 930.007405046 322.218469945 930.100001111 600.006666666 c 0
 930.103632348 610.900377557 939.212955776 620.003630126 950.106666666 619.999998889 c 0
 961.000377557 619.996367652 970.103630126 610.887044224 970.099998889 599.993333334 c 0
 970.037293224 411.876338801 859.224474031 334.349068944 768.018043074 302.39838192 c 1
 969.357815653 235.480128123 969.999486077 0.577596400024 970.000704219 -0.767680634398 c 0
 969.267570674 -10.1921214225 961.468086234 -19.9999918008 950.018109896 -19.9999918008 c 0xbc
EndSplineSet
EndChar

StartChar: l
Encoding: 108 108 108
Width: 1000
VWidth: 0
HStem: -20 40<70 969.993> 500 20G<44.5531 55.4469>
VStem: 30 40<20 519.993>
LayerCount: 2
Fore
SplineSet
50 520 m 0
 60.8937114956 520 70 510.893711496 70 500 c 2
 70 20 l 1
 950 20 l 2
 960.893711496 20 970 10.8937114956 970 0 c 0
 970 -10.8937114956 960.893711496 -20 950 -20 c 2
 50 -20 l 2
 41.4160765339 -20 30 -12.1060302844 30 0 c 2
 30 500 l 2
 30 510.893711496 39.1062885044 520 50 520 c 0
EndSplineSet
EndChar

StartChar: m
Encoding: 109 109 109
Width: 1000
VWidth: 0
HStem: 478 40<241.486 369.888 548.738 930>
VStem: 30 40<-21.9922 305.373> 330 40<78.0066 303.54> 930 40<-21.9934 478>
LayerCount: 2
Fore
SplineSet
950 -22 m 0
 939.106288504 -22 930 -12.8937114956 930 -2 c 2
 930 478 l 1
 650.021095089 478 l 2
 643.861860949 477.971901304 370 475.782927638 370 198 c 2
 370 98 l 2
 370 87.1062885044 360.893711496 78 350 78 c 0
 339.106288504 78 330 87.1062885044 330 98 c 2
 330 198 l 2
 330 517.704512282 649.981884065 517.999991795 649.981884065 517.999991795 c 1
 950 518 l 2
 958.583923466 518 970 510.106030284 970 498 c 2
 970 -2 l 2
 970 -12.8937114956 960.893711496 -22 950 -22 c 0
369.999991795 500.018115935 m 0
 369.999991795 488.568998765 360.195560387 480.748418511 350.841909044 480.003744589 c 0
 343.178630342 479.968784376 70 477.784017587 70 200 c 0
 70 108.001212528 70.0000416877 43.0034627082 70.0999506175 -1.95555566529 c 0
 70.1241588055 -12.8492402629 61.0381289323 -21.9757424295 50.1444443347 -21.9999506175 c 0
 39.2507597371 -22.0241588055 30.1242575705 -12.9381289323 30.1000493825 -2.04444433471 c 0
 29.9998749368 43.0340562649 30 107.998787472 30 200 c 0
 30 519.122160692 349.194212109 519.999279213 350.767674592 520.000704451 c 0
 360.192115608 519.267573751 369.999991795 511.46809227 369.999991795 500.018115935 c 0
EndSplineSet
EndChar

StartChar: n
Encoding: 110 110 110
Width: 1000
VWidth: 0
HStem: -20 21G<44.5531 55.4469> -20 21G<44.5531 55.4469> 500 20G<44.5531 55.4469> 600 20G<944.553 955.447> 600 20G<944.553 955.447>
VStem: 30 40<-19.9934 519.993> 930 40<36.085 619.993>
LayerCount: 2
Fore
SplineSet
50 -20 m 0xa6
 39.1062885044 -20 30 -10.8937114956 30 0 c 2
 30 500 l 2
 30 510.893711496 39.1062885044 520 50 520 c 0
 60.8937114956 520 70 510.893711496 70 500 c 2
 70 0 l 2
 70 -10.8937114956 60.8937114956 -20 50 -20 c 0xa6
133.04003392 510.5999788 m 0
 138.813689465 519.837827673 151.362129928 522.733621625 160.5999788 516.95996608 c 2
 930 36.0849528301 l 1
 930 600 l 2x2e
 930 610.893711496 939.106288504 620 950 620 c 0x36
 960.893711496 620 970 610.893711496 970 600 c 2x2e
 970 0 l 2
 970 -2.21490925507 969.215699288 -6.40126073822 967.73933029 -9.23667477216 c 0
 962.429940415 -19.4335283979 949.148883687 -23.0530051346 939.4000212 -16.9599660801 c 2
 139.4000212 483.04003392 l 2
 130.162172327 488.813689465 127.266378375 501.362129928 133.04003392 510.5999788 c 0
EndSplineSet
EndChar

StartChar: o
Encoding: 111 111 111
Width: 1000
VWidth: 0
HStem: -20 40<70 930> 500 20G<44.5531 55.4469> 580 40<130.007 930>
VStem: 30 40<20 519.993> 930 40<20 580>
LayerCount: 2
Fore
SplineSet
50 520 m 0
 60.8937114956 520 70 510.893711496 70 500 c 2
 70 20 l 1
 930 20 l 1
 930 580 l 1
 150 580 l 2
 139.106288504 580 130 589.106288504 130 600 c 0
 130 610.893711496 139.106288504 620 150 620 c 2
 950 620 l 2
 958.583923466 620 970 612.106030284 970 600 c 2
 970 0 l 2
 970 -8.58392346613 962.106030284 -20 950 -20 c 2
 50 -20 l 2
 41.4160765339 -20 30 -12.1060302844 30 0 c 2
 30 500 l 2
 30 510.893711496 39.1062885044 520 50 520 c 0
EndSplineSet
EndChar

StartChar: p
Encoding: 112 112 112
Width: 1000
VWidth: 0
HStem: -20 21G<44.5531 55.4469> -20 21G<44.5531 55.4469> 280 40<70 930> 500 20G<44.5531 55.4469> 580 40<130.007 930>
VStem: 30 40<-19.9934 280 320 519.993> 930 40<320 580>
LayerCount: 2
Fore
SplineSet
50 -20 m 0xbe
 39.1062885044 -20 30 -10.8937114956 30 0 c 2
 30 300 l 1
 30 500 l 2
 30 510.893711496 39.1062885044 520 50 520 c 0
 60.8937114956 520 70 510.893711496 70 500 c 2
 70 320 l 1
 930 320 l 1
 930 580 l 1
 150 580 l 2
 139.106288504 580 130 589.106288504 130 600 c 0
 130 610.893711496 139.106288504 620 150 620 c 2
 950 620 l 2
 962.106030284 620 970 608.583923466 970 600 c 2
 970 300 l 2
 970 287.893969716 958.583923466 280 950 280 c 2
 70 280 l 1
 70 0 l 2
 70 -10.8937114956 60.8937114956 -20 50 -20 c 0xbe
EndSplineSet
EndChar

StartChar: q
Encoding: 113 113 113
Width: 1000
VWidth: 0
HStem: -20 40<70 330 370 930> 500 20G<44.5531 55.4469> 580 40<130.007 930>
VStem: 30 40<20 519.993> 330 40<20 319.993> 930 40<20 580>
LayerCount: 2
Fore
SplineSet
350 320 m 0
 360.893711496 320 370 310.893711496 370 300 c 2
 370 20 l 1
 930 20 l 1
 930 580 l 1
 150 580 l 2
 139.106288504 580 130 589.106288504 130 600 c 0
 130 610.893711496 139.106288504 620 150 620 c 2
 950 620 l 2
 958.583923466 620 970 612.106030284 970 600 c 2
 970 0 l 2
 970 -8.58392346613 962.106030284 -20 950 -20 c 2
 350 -20 l 1
 50 -20 l 2
 41.4160765339 -20 30 -12.1060302844 30 0 c 2
 30 500 l 2
 30 510.893711496 39.1062885044 520 50 520 c 0
 60.8937114956 520 70 510.893711496 70 500 c 2
 70 20 l 1
 330 20 l 1
 330 300 l 2
 330 310.893711496 339.106288504 320 350 320 c 0
EndSplineSet
EndChar

StartChar: r
Encoding: 114 114 114
Width: 1000
VWidth: 0
HStem: -20 40<839.36 970.093> -20 21G<44.5531 55.4469> 280 40<70 633.473 671.2 930> 500 20G<44.5531 55.4469> 580 40<130.007 930>
VStem: 30 40<-19.9934 280 320 519.993> 631.201 39.9995<197.209 280> 930 40<320 580>
LayerCount: 2
Fore
SplineSet
50 520 m 0x7f
 60.8937114956 520 70 510.893711496 70 500 c 2
 70 320 l 1
 930 320 l 1
 930 580 l 1
 150 580 l 2
 139.106288504 580 130 589.106288504 130 600 c 0
 130 610.893711496 139.106288504 620 150 620 c 2
 950 620 l 2
 958.583923466 620 970 612.106030284 970 600 c 2
 970 300 l 2
 970 291.416076534 962.106030284 280 950 280 c 2
 671.20000418 280 l 1
 677.38917638 214.762476946 715.463901589 20 950.1 20 c 0
 960.993711496 20 970.1 10.8937114956 970.1 0 c 0
 970.1 -10.8937114956 960.993711496 -20 950.1 -20 c 0xbf
 679.747141328 -20 637.730040305 208.948274177 631.200530854 280 c 1
 70 280 l 1
 70 0 l 2
 70 -10.8937114956 60.8937114956 -20 50 -20 c 0
 39.1062885044 -20 30 -10.8937114956 30 0 c 2
 30 300 l 1
 30 500 l 2
 30 510.893711496 39.1062885044 520 50 520 c 0x7f
EndSplineSet
EndChar

StartChar: s
Encoding: 115 115 115
Width: 1000
VWidth: 0
HStem: -20 40<70 930> 280 40<70 930> 500 20G<44.5531 55.4469> 580 40<130.007 930>
VStem: 30 40<20 119.993 320 519.993> 930 40<20 280 480.007 580>
LayerCount: 2
Fore
SplineSet
950 480 m 0
 939.106288504 480 930 489.106288504 930 500 c 2
 930 580 l 1
 150 580 l 2
 139.106288504 580 130 589.106288504 130 600 c 0
 130 610.893711496 139.106288504 620 150 620 c 2
 950 620 l 2
 958.583923466 620 970 612.106030284 970 600 c 2
 970 500 l 2
 970 489.106288504 960.893711496 480 950 480 c 0
50 520 m 0
 60.8937114956 520 70 510.893711496 70 500 c 2
 70 320 l 1
 950 320 l 2
 962.106030284 320 970 308.583923466 970 300 c 2
 970 0 l 2
 970 -12.1060302844 958.583923466 -20 950 -20 c 2
 50 -20 l 2
 37.8939697156 -20 30 -8.58392346613 30 0 c 2
 30 100 l 2
 30 110.893711496 39.1062885044 120 50 120 c 0
 60.8937114956 120 70 110.893711496 70 100 c 2
 70 20 l 1
 930 20 l 1
 930 280 l 1
 50 280 l 2
 41.4160765339 280 30 287.893969716 30 300 c 2
 30 500 l 2
 30 510.893711496 39.1062885044 520 50 520 c 0
EndSplineSet
EndChar

StartChar: t
Encoding: 116 116 116
Width: 1000
VWidth: 0
HStem: -20 21G<344.553 355.447> -20 21G<344.553 355.447> 580 40<130.007 330 370 969.993>
VStem: 330 40<-19.9934 580>
LayerCount: 2
Fore
SplineSet
350 -20 m 0xb0
 339.106288504 -20 330 -10.8937114956 330 0 c 2
 330 580 l 1
 150 580 l 2
 139.106288504 580 130 589.106288504 130 600 c 0
 130 610.893711496 139.106288504 620 150 620 c 2
 350 620 l 1
 950 620 l 2
 960.893711496 620 970 610.893711496 970 600 c 0
 970 589.106288504 960.893711496 580 950 580 c 2
 370 580 l 1
 370 0 l 2
 370 -10.8937114956 360.893711496 -20 350 -20 c 0xb0
EndSplineSet
EndChar

StartChar: u
Encoding: 117 117 117
Width: 1000
VWidth: 0
HStem: -20 40<248.738 930> 500 20G<44.5531 55.4469> 600 20G<944.553 955.447> 600 20G<944.553 955.447>
VStem: 30 40<194.46 519.993> 930 40<20 619.993>
LayerCount: 2
Fore
SplineSet
950 620 m 0xec
 960.893711496 620 970 610.893711496 970 600 c 2
 970 0 l 2
 970 -12.1060302844 958.583923466 -20 950 -20 c 2
 349.981884065 -19.9999917953 l 1
 349.981884065 -19.9999917953 30 -19.7045122816 30 300 c 2
 30 500 l 2
 30 510.893711496 39.1062885044 520 50 520 c 0
 60.8937114956 520 70 510.893711496 70 500 c 2
 70 300 l 2
 70 22.2170723618 343.861860949 20.0280986959 350.021095089 20 c 2
 930 20 l 1
 930 600 l 2xdc
 930 610.893711496 939.106288504 620 950 620 c 0xec
EndSplineSet
EndChar

StartChar: v
Encoding: 118 118 118
Width: 1000
VWidth: 0
HStem: 500 20G<44.5531 55.4469>
VStem: 30 40<37.3703 519.993>
LayerCount: 2
Fore
SplineSet
50 520 m 0
 60.8937114956 520 70 510.893711496 70 500 c 2
 70 37.3703418364 l 1
 938.905996075 616.641005887 l 2
 947.970111932 622.683749791 960.598261983 620.158119781 966.641005887 611.094003925 c 0
 972.683749791 602.029888068 970.158119781 589.401738017 961.094003925 583.358994113 c 2
 61.0940039245 -16.6410058868 l 2
 59.153893175 -17.9344130531 54.9664319096 -19.6709841946 51.5691417089 -19.9383498389 c 0
 40.108256122 -20.8403178423 30 -11.4963230954 30 0 c 2
 30 500 l 2
 30 510.893711496 39.1062885044 520 50 520 c 0
EndSplineSet
EndChar

StartChar: w
Encoding: 119 119 119
Width: 1000
VWidth: 0
HStem: -20 40<70 151.321 330.007 751.262> 500 20G<44.5531 55.4469 344.553 355.447> 600 20G<944.553 955.447> 600 20G<944.553 955.447>
VStem: 30 40<21.2665 519.993> 330 40<187.889 519.993> 930 40<194.46 619.993>
LayerCount: 2
Fore
SplineSet
330 0 m 0xde
 330 10.8937114956 339.106288504 20 350 20 c 2
 649.978904911 20 l 2
 656.138139051 20.0280986959 930 22.2170723618 930 300 c 2
 930 600 l 2xde
 930 610.893711496 939.106288504 620 950 620 c 0xee
 960.893711496 620 970 610.893711496 970 600 c 2
 970 300 l 2
 970 -19.7045122816 650.018115935 -19.9999917953 650.018115935 -19.9999917953 c 1
 350 -20 l 2
 339.106288504 -20 330 -10.8937114956 330 0 c 0xde
50 520 m 0
 60.8937114956 520 70 510.893711496 70 500 c 2
 70 21.2664605628 l 1
 137.780241305 28.029781821 330 65.8002730746 330 300 c 2
 330 500 l 2
 330 510.893711496 339.106288504 520 350 520 c 0
 360.893711496 520 370 510.893711496 370 500 c 2
 370 300 l 2
 370 -19.1219526336 50.1492561035 -19.9998738975 50.0210554001 -19.9999900214 c 0
 41.3986698888 -19.9999734623 30 -12.1060535145 30 0 c 2
 30 500 l 2
 30 510.893711496 39.1062885044 520 50 520 c 0
EndSplineSet
EndChar

StartChar: x
Encoding: 120 120 120
Width: 1000
VWidth: 0
HStem: -20 21G<44.2478 55.6971> -20 21G<44.2478 55.6971> 180 40<162.512 270.093> 280 40<238.364 751.266> 380 40<730.107 837.612> 600 20G<944.303 955.752> 600 20G<944.303 955.752>
VStem: 29.9989 39.9953<-19.9928 84.0977> 47.9617 38.0766<462.9 518.876> 930.1 40<-19.9402 105.545 515.891 619.993>
LayerCount: 2
Fore
SplineSet
950.027234307 619.999981457 m 0x3c40
 961.477205046 619.999981457 969.272217615 610.183341899 970.001053472 600.758541549 c 0
 969.998893955 599.172662479 969.103828859 380 750.1 380 c 0
 739.206288504 380 730.1 389.106288504 730.1 400 c 0
 730.1 410.893711496 739.206288504 420 750.1 420 c 0
 927.87818761 420 929.953542207 593.282868059 930.005780269 600.871629071 c 0
 930.751703844 610.187289113 938.578588876 619.999981457 950.027234307 619.999981457 c 0x3c40
49.9728125251 -19.999981521 m 0xb940
 38.5228417537 -19.999981521 30.7278062193 -10.1833868769 29.998948318 -0.758588565868 c 0
 30.0011188174 0.838100644639 30.9084577775 220 250.1 220 c 0
 260.993711496 220 270.1 210.893711496 270.1 200 c 0
 270.1 189.106288504 260.993711496 180 250.1 180 c 0
 72.1090968479 180 70.0461855471 6.68926142062 69.9942315505 -0.871460130675 c 0
 69.2483119206 -10.1873450848 61.4214607537 -19.999981521 49.9728125251 -19.999981521 c 0xb940
60.8727332699 519.038293054 m 0
 71.2426168649 522.375726855 82.7008592535 516.497150325 86.0382930542 506.12726673 c 0
 112.5385714 423.787116155 176.508653713 320 350 320 c 2
 650.018115929 319.999991795 l 1
 650.018115929 319.999991795 969.993432416 319.706086497 970.099998889 0.0066666662963 c 0
 970.103630126 -10.8870442241 961.000377557 -19.9963676519 950.106666666 -19.9999988889 c 0
 939.212955776 -20.0036301259 930.103632348 -10.9003775566 930.100001111 -0.0066666662963 c 0
 930.007405046 277.781530055 656.135861134 279.971911739 649.978904981 280 c 2
 350 280 l 2
 155.491346287 280 77.4614285997 402.212883845 47.9617069458 493.87273327 c 0x38c0
 44.6242731451 504.242616865 50.5028496749 515.700859254 60.8727332699 519.038293054 c 0
EndSplineSet
EndChar

StartChar: y
Encoding: 121 121 121
Width: 1000
VWidth: 0
HStem: 274 40<225.237 930> 600 20G<944.553 955.447> 600 20G<944.553 955.447>
VStem: 30.9219 38.1562<460.317 516.919> 930 40<-31.9934 274 314 619.993>
LayerCount: 2
Fore
SplineSet
950 620 m 0xd8
 960.893711496 620 970 610.893711496 970 600 c 2
 970 294 l 1
 970 -12 l 2
 970 -22.8937114956 960.893711496 -32 950 -32 c 0
 939.106288504 -32 930 -22.8937114956 930 -12 c 2
 930 274 l 1
 338 274 l 2
 140.514314062 274 60.4485948946 398.145116589 30.9218783113 491.9978943 c 0
 27.6526179183 502.389471978 33.6063166225 513.808861296 43.9978943002 517.078121689 c 0
 54.3894719779 520.347382082 65.8088612957 514.393683377 69.0781216887 504.0021057 c 0
 95.5514051054 419.854883411 161.485685938 314 338 314 c 2
 930 314 l 1
 930 600 l 2xb8
 930 610.893711496 939.106288504 620 950 620 c 0xd8
EndSplineSet
EndChar

StartChar: z
Encoding: 122 122 122
Width: 1000
VWidth: 0
HStem: -20 40<71.2665 969.993> 280 40<237.889 749.867> 580 40<130.007 929.521>
CounterMasks: 1 e0
LayerCount: 2
Fore
SplineSet
970 0 m 0
 970 -10.8937114956 960.893711496 -20 950 -20 c 2
 50 -20 l 2
 37.8939464855 -20 30.0000265377 -8.60133011116 30.0000099786 0.0210554001101 c 0
 30.0001261025 0.149256103546 30.8780473664 320 350 320 c 2
 649.978904911 320 l 2
 656.71433046 320.030727306 916.161882045 322.839093274 929.520890187 580 c 1
 150 580 l 2
 139.106288504 580 130 589.106288504 130 600 c 0
 130 610.893711496 139.106288504 620 150 620 c 2
 950 620 l 2
 958.583923466 620 970 612.106030284 970 600 c 0
 970 280.295487718 650.018115935 280.000008205 650.018115935 280.000008205 c 1
 350 280 l 2
 115.800273075 280 78.029781821 87.7802413055 71.2664605628 20 c 1
 950 20 l 2
 960.893711496 20 970 10.8937114956 970 0 c 0
EndSplineSet
EndChar

